<?xml version="1.0" encoding="utf-8"?>
<!-- Generator: Adobe Illustrator 27.9.6, SVG Export Plug-In . SVG Version: 9.03 Build 54986)  -->
<svg version="1.1" id="Layer_1" xmlns="http://www.w3.org/2000/svg" xmlns:xlink="http://www.w3.org/1999/xlink" x="0px" y="0px"
	 viewBox="0 0 93 40" style="enable-background:new 0 0 93 40;" xml:space="preserve">
<g>
	<g>
		
			<linearGradient id="SVGID_1_" gradientUnits="userSpaceOnUse" x1="5.934" y1="-1.1648" x2="21.4517" y2="41.3706" gradientTransform="matrix(1 0 0 -1 0 41)">
			<stop  offset="0.1" style="stop-color:#8B36C9"/>
			<stop  offset="0.6348" style="stop-color:#EC0080"/>
			<stop  offset="1" style="stop-color:#FF4AAC"/>
		</linearGradient>
		<path style="fill:url(#SVGID_1_);" d="M25.99,19.93L7.21,8.81V7.23h13.31c2.51,0,3.25,2,3.42,2.62c0.17,0.61,0.55,2.72-1.62,4
			l-0.95,0.56l5.84,3.46c0.31,0.18,0.6,0.38,0.89,0.58c2.73-2.69,3.84-6.63,2.79-10.5C29.6,3.19,25.43,0,20.52,0H0v12.94
			l22.32,13.22c2.16,1.28,1.78,3.38,1.62,4c-0.17,0.61-0.91,2.62-3.42,2.62H7.21V20L0,15.73V40h20.52c4.91,0,9.08-3.19,10.38-7.94
			C32.19,27.31,30.22,22.44,25.99,19.93z"/>
		<path style="fill:#FFFFFF;" d="M41.09,17.68V6.92h5.32c0.74,0,1.38,0.13,1.94,0.38c0.56,0.26,0.99,0.61,1.31,1.07
			c0.32,0.46,0.48,0.98,0.48,1.58c0,0.44-0.11,0.85-0.33,1.24c-0.22,0.38-0.52,0.71-0.9,0.98c0.48,0.26,0.86,0.59,1.14,1
			c0.28,0.41,0.42,0.86,0.42,1.35c0,0.63-0.16,1.18-0.48,1.65c-0.32,0.48-0.76,0.85-1.33,1.11c-0.57,0.27-1.24,0.4-1.99,0.4H41.09z
			 M43.72,11.21h2.51c0.39,0,0.7-0.1,0.92-0.29c0.23-0.19,0.34-0.45,0.34-0.77c0-0.33-0.11-0.59-0.34-0.78
			c-0.22-0.19-0.53-0.28-0.92-0.28h-2.51V11.21z M43.72,15.51h2.74c0.41,0,0.73-0.1,0.97-0.31c0.24-0.2,0.36-0.48,0.36-0.83
			c0-0.35-0.12-0.63-0.36-0.83c-0.24-0.21-0.56-0.31-0.97-0.31h-2.74V15.51z"/>
		<path style="fill:#FFFFFF;" d="M51.45,17.68V6.92h2.64v8.42h5.66v2.34H51.45z"/>
		<path style="fill:#FFFFFF;" d="M65.54,17.85c-0.81,0-1.56-0.14-2.25-0.42c-0.7-0.28-1.3-0.68-1.83-1.18
			c-0.52-0.51-0.93-1.1-1.22-1.77c-0.29-0.67-0.44-1.4-0.44-2.17c0-0.78,0.15-1.5,0.44-2.17c0.29-0.67,0.7-1.26,1.22-1.77
			c0.52-0.51,1.13-0.9,1.83-1.18c0.7-0.28,1.45-0.42,2.25-0.42s1.56,0.14,2.25,0.42c0.7,0.28,1.3,0.68,1.83,1.18
			c0.52,0.51,0.93,1.1,1.22,1.77c0.29,0.67,0.44,1.4,0.44,2.17c0,0.78-0.15,1.5-0.44,2.17c-0.29,0.67-0.7,1.26-1.22,1.77
			c-0.52,0.51-1.13,0.9-1.83,1.18C67.1,17.71,66.35,17.85,65.54,17.85z M65.54,15.42c0.43,0,0.83-0.08,1.2-0.24
			c0.37-0.16,0.69-0.38,0.96-0.65c0.27-0.28,0.48-0.61,0.64-0.99c0.15-0.38,0.23-0.8,0.23-1.24c0-0.45-0.08-0.87-0.23-1.24
			c-0.15-0.38-0.37-0.71-0.64-0.98c-0.27-0.28-0.59-0.49-0.96-0.65c-0.37-0.16-0.77-0.24-1.2-0.24s-0.83,0.08-1.2,0.24
			c-0.37,0.16-0.69,0.38-0.96,0.65c-0.27,0.28-0.48,0.6-0.64,0.98c-0.15,0.38-0.23,0.79-0.23,1.24c0,0.44,0.08,0.85,0.23,1.24
			c0.15,0.38,0.37,0.71,0.64,0.99c0.27,0.28,0.59,0.49,0.96,0.65C64.71,15.34,65.11,15.42,65.54,15.42z"/>
		<path style="fill:#FFFFFF;" d="M77.42,17.83c-0.82,0-1.58-0.14-2.28-0.42c-0.7-0.28-1.31-0.67-1.83-1.18
			c-0.52-0.5-0.93-1.09-1.22-1.76c-0.29-0.67-0.44-1.4-0.44-2.17c0-0.79,0.15-1.52,0.44-2.19c0.29-0.67,0.7-1.26,1.23-1.76
			c0.53-0.5,1.14-0.89,1.84-1.18c0.7-0.28,1.45-0.42,2.26-0.42c0.59,0,1.18,0.09,1.75,0.26s1.1,0.42,1.59,0.73
			c0.48,0.31,0.89,0.68,1.22,1.11l-1.78,1.75c-0.38-0.48-0.8-0.84-1.26-1.08c-0.46-0.24-0.97-0.35-1.51-0.35
			c-0.43,0-0.83,0.08-1.2,0.24c-0.37,0.16-0.7,0.38-0.97,0.65c-0.28,0.28-0.49,0.6-0.64,0.98c-0.15,0.38-0.23,0.79-0.23,1.24
			c0,0.44,0.08,0.85,0.24,1.22c0.16,0.37,0.38,0.7,0.66,0.98c0.28,0.28,0.61,0.5,1,0.65c0.38,0.15,0.8,0.23,1.25,0.23
			c0.52,0,1-0.11,1.45-0.34c0.44-0.22,0.85-0.56,1.2-1l1.73,1.71c-0.33,0.42-0.73,0.79-1.21,1.1c-0.48,0.31-1,0.55-1.56,0.72
			C78.55,17.75,77.99,17.83,77.42,17.83z"/>
		<path style="fill:#FFFFFF;" d="M82.49,17.68V6.92h2.64v4.7l4.34-4.7h3.19l-4.97,5.06l5.24,5.7h-3.49l-4.31-4.93v4.93H82.49z"/>
		<path style="fill:#FFFFFF;" d="M46.27,33.25c-1.11,0-2.18-0.22-3.19-0.66c-1.02-0.44-1.91-1.07-2.68-1.89l1.13-1.25
			c0.73,0.76,1.49,1.32,2.29,1.69c0.8,0.37,1.64,0.56,2.53,0.56c0.7,0,1.32-0.11,1.86-0.32c0.54-0.21,0.96-0.51,1.26-0.9
			c0.3-0.39,0.46-0.83,0.46-1.32c0-0.68-0.23-1.19-0.7-1.55c-0.47-0.36-1.25-0.62-2.33-0.8l-2.14-0.36
			c-1.31-0.22-2.28-0.63-2.91-1.21c-0.63-0.58-0.94-1.37-0.94-2.35c0-0.78,0.21-1.47,0.63-2.07c0.42-0.6,1-1.06,1.75-1.38
			s1.62-0.49,2.61-0.49c0.99,0,1.97,0.16,2.93,0.49c0.96,0.33,1.83,0.79,2.61,1.38l-1.01,1.37c-1.51-1.15-3.04-1.73-4.6-1.73
			c-0.63,0-1.19,0.1-1.67,0.29c-0.48,0.19-0.85,0.46-1.11,0.8c-0.26,0.34-0.4,0.74-0.4,1.2c0,0.61,0.2,1.08,0.62,1.4
			c0.41,0.33,1.09,0.56,2.04,0.71l2.1,0.34c1.5,0.25,2.59,0.68,3.27,1.29c0.69,0.61,1.03,1.46,1.03,2.55c0,0.84-0.23,1.57-0.68,2.21
			c-0.46,0.64-1.09,1.13-1.9,1.48C48.28,33.07,47.34,33.25,46.27,33.25z"/>
		<path style="fill:#FFFFFF;" d="M53.09,33.05V19.13h6.21c0.91,0,1.71,0.17,2.38,0.51c0.67,0.34,1.2,0.82,1.58,1.43
			c0.38,0.62,0.57,1.33,0.57,2.14c0,0.82-0.19,1.54-0.57,2.15c-0.38,0.61-0.91,1.09-1.59,1.43c-0.68,0.35-1.47,0.52-2.37,0.52h-4.42
			v5.75H53.09z M54.88,25.77h4.27c0.89,0,1.59-0.23,2.11-0.69c0.52-0.46,0.78-1.08,0.78-1.86c0-0.77-0.26-1.38-0.78-1.83
			c-0.52-0.45-1.23-0.68-2.11-0.68h-4.27V25.77z"/>
		<path style="fill:#FFFFFF;" d="M64.98,33.05V19.13h1.79v13.92H64.98z"/>
		<path style="fill:#FFFFFF;" d="M69.08,33.05V19.13h1.77l8.08,10.86V19.13h1.69v13.92h-1.57l-8.25-11.16v11.16H69.08z"/>
		<path style="fill:#FFFFFF;" d="M87.58,33.25c-1.11,0-2.18-0.22-3.19-0.66c-1.02-0.44-1.91-1.07-2.68-1.89l1.13-1.25
			c0.73,0.76,1.49,1.32,2.29,1.69c0.8,0.37,1.64,0.56,2.53,0.56c0.7,0,1.32-0.11,1.85-0.32c0.54-0.21,0.96-0.51,1.26-0.9
			c0.3-0.39,0.46-0.83,0.46-1.32c0-0.68-0.24-1.19-0.7-1.55c-0.47-0.36-1.25-0.62-2.33-0.8l-2.14-0.36
			c-1.31-0.22-2.28-0.63-2.91-1.21c-0.63-0.58-0.94-1.37-0.94-2.35c0-0.78,0.21-1.47,0.62-2.07c0.42-0.6,1-1.06,1.75-1.38
			c0.75-0.33,1.62-0.49,2.61-0.49c0.99,0,1.97,0.16,2.93,0.49c0.96,0.33,1.83,0.79,2.61,1.38l-1.01,1.37
			c-1.51-1.15-3.04-1.73-4.6-1.73c-0.64,0-1.19,0.1-1.67,0.29c-0.48,0.19-0.85,0.46-1.11,0.8c-0.26,0.34-0.4,0.74-0.4,1.2
			c0,0.61,0.21,1.08,0.62,1.4c0.41,0.33,1.09,0.56,2.04,0.71l2.1,0.34c1.49,0.25,2.59,0.68,3.27,1.29c0.69,0.61,1.03,1.46,1.03,2.55
			c0,0.84-0.23,1.57-0.68,2.21c-0.46,0.64-1.09,1.13-1.91,1.48C89.6,33.07,88.65,33.25,87.58,33.25z"/>
	</g>
</g>
</svg>
